<svg width="175" height="52" viewBox="0 0 175 52" fill="none" xmlns="http://www.w3.org/2000/svg">
<path d="M40.0713 4.47656H47.8232V39.5145H40.0713V4.47656Z" fill="#141B5B"/>
<path d="M55.9235 2.4751C58.6242 2.4751 60.7743 4.67734 60.7743 7.28008C60.7743 9.88282 58.6242 12.0851 55.9235 12.0851C53.2229 12.0851 51.0728 9.88282 51.0728 7.28008C51.0728 4.67734 53.2229 2.4751 55.9235 2.4751ZM52.0726 14.488H59.8237V39.5146H52.0726V14.488Z" fill="#141B5B"/>
<path d="M82.8779 37.6626C80.8271 39.3148 78.3771 40.1158 75.4267 40.1158C68.0257 40.1158 62.7246 34.6594 62.7246 27.0017C62.7246 19.344 68.0257 13.8877 75.4267 13.8877C78.4272 13.8877 80.9775 14.7389 82.8779 16.3901V14.488H90.6289V49.5259H82.8779V37.6626ZM76.6763 33.1076C80.2273 33.1076 82.8779 30.4547 82.8779 27.0008C82.8779 23.5469 80.2273 20.894 76.6763 20.894C73.1253 20.894 70.4756 23.4967 70.4756 27.0008C70.4756 30.5049 73.1262 33.1076 76.6763 33.1076Z" fill="#141B5B"/>
<path d="M94.3789 29.7039V14.4871H102.13V28.4021C102.13 31.305 103.73 33.1067 106.381 33.1067C109.032 33.1067 110.632 31.305 110.632 28.4021V14.4871H118.384V39.5137H110.632V37.0113C109.082 39.0639 106.781 40.1148 103.881 40.1148C98.3301 40.1148 94.3789 35.8098 94.3789 29.7039Z" fill="#141B5B"/>
<path d="M121.133 27.0008C121.133 19.292 127.134 13.8867 134.535 13.8867C141.936 13.8867 147.337 18.8422 147.337 26.3001C147.337 27.5016 147.187 28.7022 147.137 29.203H128.983C129.534 31.9563 131.833 33.6075 134.834 33.6075C137.534 33.6075 139.234 31.9554 139.934 30.4045L146.886 32.3066C145.536 36.6116 141.035 40.1148 134.834 40.1148C127.232 40.1148 121.131 34.7086 121.131 27.0008H121.133ZM139.986 23.6974C139.386 21.5955 137.185 20.394 134.585 20.394C132.185 20.394 130.134 21.3455 129.234 23.6974H139.985H139.986Z" fill="#141B5B"/>
<path d="M149.087 32.5575C149.087 28.3026 151.788 25.8002 156.939 24.9992L164.69 23.7977V23.2969C164.69 21.2443 163.089 20.394 160.589 20.394C158.089 20.394 156.189 21.7953 155.038 23.8981L149.138 20.7945C150.788 16.5396 155.038 13.8867 160.59 13.8867C167.691 13.8867 172.442 17.7904 172.442 23.2969V39.5145H164.79V37.8131C163.139 39.2645 160.839 40.1157 158.039 40.1157C153.388 40.1157 149.087 37.3123 149.087 32.5575ZM159.839 34.3592C162.489 34.309 164.69 32.9078 164.69 30.305V29.2039L158.588 30.1554C157.388 30.3552 156.588 31.0066 156.588 32.1579C156.588 33.6595 157.988 34.4103 159.838 34.3601L159.839 34.3592Z" fill="#141B5B"/>
<path d="M6.61003 22.0316L6.61367 22.0271L6.61003 22.0234L12.9529 15.6758V4.53955H2.55859V39.5146H12.9529V28.3784L6.61003 22.0316Z" fill="#141B5B"/>
<path d="M27.5624 4.53955L10.0889 22.0234L10.0934 22.0271L10.0889 22.0316L27.5624 39.5146H39.6648L22.193 22.0271L39.6648 4.53955H27.5624Z" fill="#141B5B"/>
<path d="M33.1143 14.8647L25.9575 22.0252L25.9593 22.0271L25.9575 22.0289L33.1143 29.1894H38.0717L30.9159 22.0271L38.0717 14.8647H33.1143Z" fill=" bg-[#F4771D]"/>
</svg>
