<svg width="169" height="50" viewBox="0 0 169 50" fill="none" xmlns="http://www.w3.org/2000/svg">
<path d="M38.6975 4.30444H46.1837V37.9948H38.6975V4.30444Z" fill="#141B5B"/>
<path d="M54.006 2.37988C56.6141 2.37988 58.6905 4.49743 58.6905 7.00006C58.6905 9.50269 56.6141 11.6202 54.006 11.6202C51.3979 11.6202 49.3215 9.50269 49.3215 7.00006C49.3215 4.49743 51.3979 2.37988 54.006 2.37988ZM50.2871 13.9308H57.7724V37.9948H50.2871V13.9308Z" fill="#141B5B"/>
<path d="M80.0365 36.214C78.056 37.8026 75.69 38.5728 72.8408 38.5728C65.6935 38.5728 60.5742 33.3263 60.5742 25.9632C60.5742 18.6 65.6935 13.3535 72.8408 13.3535C75.7384 13.3535 78.2013 14.1719 80.0365 15.7597V13.9307H87.5218V47.6211H80.0365V36.214ZM74.0476 31.8342C77.4769 31.8342 80.0365 29.2833 80.0365 25.9623C80.0365 22.6412 77.4769 20.0904 74.0476 20.0904C70.6183 20.0904 68.0595 22.593 68.0595 25.9623C68.0595 29.3316 70.6192 31.8342 74.0476 31.8342Z" fill="#141B5B"/>
<path d="M91.1431 28.5615V13.9299H98.6284V27.3098C98.6284 30.101 100.174 31.8334 102.734 31.8334C105.293 31.8334 106.839 30.101 106.839 27.3098V13.9299H114.325V37.994H106.839V35.5878C105.342 37.5615 103.12 38.572 100.319 38.572C94.9588 38.572 91.1431 34.4326 91.1431 28.5615Z" fill="#141B5B"/>
<path d="M116.98 25.9624C116.98 18.5502 122.775 13.3528 129.922 13.3528C137.07 13.3528 142.286 18.1177 142.286 25.2887C142.286 26.444 142.141 27.5984 142.092 28.08H124.561C125.093 30.7273 127.313 32.3151 130.211 32.3151C132.819 32.3151 134.461 30.7265 135.137 29.2352L141.85 31.0642C140.546 35.2037 136.2 38.5721 130.211 38.5721C122.87 38.5721 116.978 33.3738 116.978 25.9624H116.98ZM135.187 22.7861C134.608 20.7651 132.482 19.6098 129.971 19.6098C127.653 19.6098 125.673 20.5247 124.803 22.7861H135.186H135.187Z" fill="#141B5B"/>
<path d="M143.976 31.3054C143.976 27.2142 146.584 24.808 151.558 24.0379L159.043 22.8826V22.401C159.043 20.4273 157.497 19.6098 155.083 19.6098C152.669 19.6098 150.833 20.9572 149.722 22.9791L144.024 19.9949C145.618 15.9037 149.722 13.3528 155.084 13.3528C161.942 13.3528 166.529 17.1063 166.529 22.401V37.9949H159.14V36.3589C157.546 37.7545 155.324 38.573 152.62 38.573C148.128 38.573 143.976 35.8773 143.976 31.3054ZM154.359 33.0379C156.918 32.9896 159.043 31.6423 159.043 29.1396V28.0809L153.151 28.9958C151.992 29.1879 151.219 29.8142 151.219 30.9212C151.219 32.3651 152.571 33.087 154.358 33.0387L154.359 33.0379Z" fill="#141B5B"/>
<path d="M6.38323 21.1843L6.38675 21.1799L6.38323 21.1764L12.5086 15.0729V4.36499H2.4707V37.9948H12.5086V27.2869L6.38323 21.1843Z" fill="#141B5B"/>
<path d="M26.6174 4.36499L9.74292 21.1764L9.74732 21.1799L9.74292 21.1843L26.6174 37.9948H38.3048L21.4321 21.1799L38.3048 4.36499H26.6174Z" fill="#141B5B"/>
<path d="M31.9788 14.293L25.0674 21.1781L25.0691 21.1798L25.0674 21.1816L31.9788 28.0667H36.7662L29.8557 21.1798L36.7662 14.293H31.9788Z" fill="#F4771D"/>
</svg>
